<mxfile host="app.diagrams.net" modified="2023-10-21T10:04:17.998Z" agent="Mozilla/5.0 (Windows NT 10.0; Win64; x64) AppleWebKit/537.36 (KHTML, like Gecko) Chrome/118.0.0.0 Safari/537.36 Edg/118.0.2088.57" etag="8kECvrbUET5mWrI2Adrn" version="21.2.2" type="device">
  <diagram name="Page-1" id="IK5InC27l_4ex-hldAag">
    <mxGraphModel dx="2236" dy="1885" grid="1" gridSize="10" guides="1" tooltips="1" connect="1" arrows="1" fold="1" page="1" pageScale="1" pageWidth="850" pageHeight="1100" math="0" shadow="0">
      <root>
        <mxCell id="0" />
        <mxCell id="1" parent="0" />
        <mxCell id="tjBDHsgqNmVwcGWJkq0I-20" style="edgeStyle=orthogonalEdgeStyle;rounded=0;orthogonalLoop=1;jettySize=auto;html=1;" edge="1" parent="1" source="2">
          <mxGeometry relative="1" as="geometry">
            <mxPoint x="20" y="-130" as="targetPoint" />
          </mxGeometry>
        </mxCell>
        <mxCell id="2" value="onStart" style="whiteSpace=wrap;strokeWidth=2;" parent="1" vertex="1">
          <mxGeometry x="-100" y="-147" width="51" height="34" as="geometry" />
        </mxCell>
        <mxCell id="3" value="Đăng ký" style="whiteSpace=wrap;strokeWidth=2;" parent="1" vertex="1">
          <mxGeometry x="380" y="184" width="73" height="34" as="geometry" />
        </mxCell>
        <mxCell id="4" value="Vân tay" style="whiteSpace=wrap;strokeWidth=2;" parent="1" vertex="1">
          <mxGeometry x="528" y="100" width="71" height="34" as="geometry" />
        </mxCell>
        <mxCell id="5" value="Tài khoản Facebook" style="whiteSpace=wrap;strokeWidth=2;" parent="1" vertex="1">
          <mxGeometry x="484" y="184" width="160" height="34" as="geometry" />
        </mxCell>
        <mxCell id="6" value="Tài khoản Google" style="whiteSpace=wrap;strokeWidth=2;" parent="1" vertex="1">
          <mxGeometry x="493" y="268" width="141" height="34" as="geometry" />
        </mxCell>
        <mxCell id="tjBDHsgqNmVwcGWJkq0I-39" style="edgeStyle=orthogonalEdgeStyle;rounded=0;orthogonalLoop=1;jettySize=auto;html=1;entryX=0.5;entryY=1;entryDx=0;entryDy=0;" edge="1" parent="1" target="tjBDHsgqNmVwcGWJkq0I-23">
          <mxGeometry relative="1" as="geometry">
            <mxPoint x="850" y="170" as="sourcePoint" />
          </mxGeometry>
        </mxCell>
        <mxCell id="7" value="Authentication" style="whiteSpace=wrap;strokeWidth=2;" parent="1" vertex="1">
          <mxGeometry x="694" y="184" width="222" height="34" as="geometry" />
        </mxCell>
        <mxCell id="9" value="" style="curved=1;startArrow=none;endArrow=block;exitX=0.6649320419520548;exitY=0;entryX=0.0011553697183098591;entryY=0.5;" parent="1" source="3" target="4" edge="1">
          <mxGeometry relative="1" as="geometry">
            <Array as="points">
              <mxPoint x="459" y="117" />
            </Array>
          </mxGeometry>
        </mxCell>
        <mxCell id="10" value="" style="curved=1;startArrow=none;endArrow=block;exitX=0.993792808219178;exitY=0.5;entryX=-0.00283203125;entryY=0.5;" parent="1" source="3" target="5" edge="1">
          <mxGeometry relative="1" as="geometry">
            <Array as="points" />
          </mxGeometry>
        </mxCell>
        <mxCell id="11" value="" style="curved=1;startArrow=none;endArrow=block;exitX=0.6649320419520548;exitY=1;entryX=-0.00038785460992907803;entryY=0.5;" parent="1" source="3" target="6" edge="1">
          <mxGeometry relative="1" as="geometry">
            <Array as="points">
              <mxPoint x="459" y="285" />
            </Array>
          </mxGeometry>
        </mxCell>
        <mxCell id="12" value="" style="curved=1;startArrow=none;endArrow=block;exitX=1.002805897887324;exitY=0.5;entryX=0.3745416733697981;entryY=0;" parent="1" source="4" target="7" edge="1">
          <mxGeometry relative="1" as="geometry">
            <Array as="points">
              <mxPoint x="669" y="117" />
            </Array>
          </mxGeometry>
        </mxCell>
        <mxCell id="13" value="" style="curved=1;startArrow=none;endArrow=block;exitX=0.99833984375;exitY=0.5;entryX=-0.001196509009009009;entryY=0.5;" parent="1" source="5" target="7" edge="1">
          <mxGeometry relative="1" as="geometry">
            <Array as="points" />
          </mxGeometry>
        </mxCell>
        <mxCell id="14" value="" style="curved=1;startArrow=none;endArrow=block;exitX=1.002382535460993;exitY=0.5;entryX=0.3745416733697981;entryY=1;" parent="1" source="6" target="7" edge="1">
          <mxGeometry relative="1" as="geometry">
            <Array as="points">
              <mxPoint x="669" y="285" />
            </Array>
          </mxGeometry>
        </mxCell>
        <mxCell id="tjBDHsgqNmVwcGWJkq0I-24" style="edgeStyle=orthogonalEdgeStyle;rounded=0;orthogonalLoop=1;jettySize=auto;html=1;entryX=0;entryY=0.5;entryDx=0;entryDy=0;" edge="1" parent="1" target="tjBDHsgqNmVwcGWJkq0I-23">
          <mxGeometry relative="1" as="geometry">
            <mxPoint x="120" y="-130" as="sourcePoint" />
            <Array as="points">
              <mxPoint x="120" y="-129" />
              <mxPoint x="70" y="-129" />
              <mxPoint x="70" y="-300" />
              <mxPoint x="180" y="-300" />
            </Array>
          </mxGeometry>
        </mxCell>
        <mxCell id="tjBDHsgqNmVwcGWJkq0I-23" value="Chuyển sang màn hình chính" style="rounded=0;whiteSpace=wrap;html=1;" vertex="1" parent="1">
          <mxGeometry x="790" y="-330" width="120" height="60" as="geometry" />
        </mxCell>
        <mxCell id="tjBDHsgqNmVwcGWJkq0I-25" value="True" style="text;html=1;align=center;verticalAlign=middle;resizable=0;points=[];autosize=1;strokeColor=none;fillColor=none;rotation=270;" vertex="1" parent="1">
          <mxGeometry x="25" y="-292" width="50" height="30" as="geometry" />
        </mxCell>
        <mxCell id="tjBDHsgqNmVwcGWJkq0I-30" style="edgeStyle=orthogonalEdgeStyle;rounded=0;orthogonalLoop=1;jettySize=auto;html=1;" edge="1" parent="1" source="tjBDHsgqNmVwcGWJkq0I-27">
          <mxGeometry relative="1" as="geometry">
            <mxPoint x="180" y="30" as="targetPoint" />
            <Array as="points">
              <mxPoint x="65" y="30" />
            </Array>
          </mxGeometry>
        </mxCell>
        <mxCell id="tjBDHsgqNmVwcGWJkq0I-27" value="Kiểm tra đăng nhập" style="rhombus;whiteSpace=wrap;html=1;" vertex="1" parent="1">
          <mxGeometry x="20" y="-170" width="90" height="80" as="geometry" />
        </mxCell>
        <mxCell id="tjBDHsgqNmVwcGWJkq0I-33" style="edgeStyle=orthogonalEdgeStyle;rounded=0;orthogonalLoop=1;jettySize=auto;html=1;entryX=-0.008;entryY=0.4;entryDx=0;entryDy=0;entryPerimeter=0;" edge="1" parent="1" source="tjBDHsgqNmVwcGWJkq0I-28" target="tjBDHsgqNmVwcGWJkq0I-32">
          <mxGeometry relative="1" as="geometry">
            <Array as="points">
              <mxPoint x="260" y="-166" />
            </Array>
          </mxGeometry>
        </mxCell>
        <mxCell id="tjBDHsgqNmVwcGWJkq0I-36" style="edgeStyle=orthogonalEdgeStyle;rounded=0;orthogonalLoop=1;jettySize=auto;html=1;entryX=0;entryY=0.5;entryDx=0;entryDy=0;" edge="1" parent="1" source="tjBDHsgqNmVwcGWJkq0I-28" target="3">
          <mxGeometry relative="1" as="geometry">
            <Array as="points">
              <mxPoint x="260" y="201" />
            </Array>
          </mxGeometry>
        </mxCell>
        <mxCell id="tjBDHsgqNmVwcGWJkq0I-28" value="Đăng nhập" style="rounded=0;whiteSpace=wrap;html=1;" vertex="1" parent="1">
          <mxGeometry x="180" width="120" height="50" as="geometry" />
        </mxCell>
        <mxCell id="tjBDHsgqNmVwcGWJkq0I-31" value="False&lt;br&gt;" style="text;html=1;align=center;verticalAlign=middle;resizable=0;points=[];autosize=1;strokeColor=none;fillColor=none;rotation=270;" vertex="1" parent="1">
          <mxGeometry x="25" y="-42" width="50" height="30" as="geometry" />
        </mxCell>
        <mxCell id="tjBDHsgqNmVwcGWJkq0I-32" value="Xử lý/&lt;br&gt;&amp;nbsp;Authentication" style="rounded=0;whiteSpace=wrap;html=1;" vertex="1" parent="1">
          <mxGeometry x="380" y="-190" width="120" height="60" as="geometry" />
        </mxCell>
        <mxCell id="tjBDHsgqNmVwcGWJkq0I-34" value="Lấy thông tin đăng nhập từ người dùng" style="text;html=1;align=center;verticalAlign=middle;resizable=0;points=[];autosize=1;strokeColor=none;fillColor=none;rotation=270;" vertex="1" parent="1">
          <mxGeometry x="120" y="-143" width="230" height="30" as="geometry" />
        </mxCell>
        <mxCell id="tjBDHsgqNmVwcGWJkq0I-37" value="Người dùng nhấn đăng ký" style="text;html=1;align=center;verticalAlign=middle;resizable=0;points=[];autosize=1;strokeColor=none;fillColor=none;rotation=270;" vertex="1" parent="1">
          <mxGeometry x="140" y="130" width="160" height="30" as="geometry" />
        </mxCell>
      </root>
    </mxGraphModel>
  </diagram>
</mxfile>
